<svg width="1500" height="381" viewBox="0 0 1500 381" fill="none" xmlns="http://www.w3.org/2000/svg">
<g clip-path="url(#clip0_2_3)">
<path d="M417.93 159.649H204.048V229.296H342.063C340.137 239.559 336.611 249.456 331.615 258.625C322.29 275.145 307.457 287.651 287.118 296.14C268.877 303.737 245.866 307.621 218.159 308.432C191.478 307.973 168.532 303.876 149.324 296.14C129.017 287.847 114.16 275.506 104.753 259.117C95.3454 242.727 90.6416 219.872 90.6416 190.552C90.6416 161.346 95.3044 138.474 104.63 121.937C113.956 105.4 128.796 92.8952 149.152 84.4219C167.393 76.8254 190.404 72.9411 217.987 72.1298C244.669 72.6051 267.615 76.7024 286.823 84.4219C299.76 89.4284 311.423 97.2459 320.97 107.31H422.847C420.404 100.568 417.513 93.9978 414.193 87.6424C399.443 59.5673 375.539 37.9579 342.481 22.8141C309.424 7.67024 270.991 0.0655577 227.182 0H218.11C174.596 0.688355 136.737 7.76039 104.532 21.2161C70.6384 35.4421 44.7431 56.2812 26.8459 83.7335C8.94861 111.186 0 146.792 0 190.552C0 230.804 7.37524 264.959 22.1257 293.018C36.8762 321.077 60.7801 342.686 93.8376 357.846C126.895 372.99 165.271 380.562 208.965 380.562H218.037C261.55 379.874 299.41 372.802 331.615 359.346C365.492 345.104 391.387 324.265 409.301 296.829C427.215 269.393 436.163 233.787 436.147 190.011C436.172 179.87 435.655 169.735 434.598 159.649H417.93Z" fill="black"/>
<path d="M912.587 205.646C903.946 198.268 894.187 192.31 883.676 187.995C873.491 183.499 862.635 180.708 851.545 179.734C863.297 177.916 874.339 172.956 883.504 165.377C893.116 157.8 900.505 147.769 904.892 136.344C909.495 123.945 911.747 110.798 911.53 97.5744C911.53 66.2378 900.713 43.1041 879.079 28.1734C857.445 13.2426 828.69 5.81823 792.813 5.90018H514.693V374.662H807.023C836.425 374.662 861.01 370.688 880.775 362.739C900.541 354.79 914.964 343.047 924.043 327.51C933.139 311.989 937.687 293.37 937.687 271.655C937.852 258.631 935.679 245.683 931.271 233.426C927.554 222.701 921.156 213.104 912.685 205.548L912.587 205.646ZM601.745 75.252H764.566C777.547 75.252 787.716 76.6287 795.075 79.3821C802.249 81.9857 808.406 86.8082 812.653 93.1492C816.984 99.499 819.266 107.023 819.192 114.709C819.192 128.477 815.48 138.687 808.055 145.341C800.631 151.995 788.191 155.322 770.737 155.322H601.647L601.745 75.252ZM837.753 288.765C832.295 294.685 825.244 298.902 817.446 300.91C806.318 303.74 794.851 305.014 783.373 304.696H601.647V224.01H785.217C805.605 224.01 820.675 227.288 830.427 233.844C840.179 240.4 845.095 250.611 845.177 264.476C845.177 275.162 842.719 283.307 837.802 288.913" fill="black"/>
<path d="M1387.36 5.80185L1257.7 286.872L1130.8 5.80185H1016.06V374.76H1100.51V128.55L1212.49 374.76H1299.91L1415.11 128.55V374.76H1500V5.80185H1387.36Z" fill="black"/>
</g>
<defs>
<clipPath id="clip0_2_3">
<rect width="1500" height="380.562" fill="white"/>
</clipPath>
</defs>
</svg>
